<?xml version="1.0" standalone="no"?>
<!DOCTYPE svg PUBLIC "-//W3C//DTD SVG 20010904//EN"
        "http://www.w3.org/TR/2001/REC-SVG-20010904/DTD/svg10.dtd">
<svg version="1.0" xmlns="http://www.w3.org/2000/svg"
     width="1279.000000pt" height="421.000000pt" viewBox="0 0 1279.000000 421.000000"
     preserveAspectRatio="xMidYMid meet">
    <metadata>
        Created by potrace 1.15, written by Peter Selinger 2001-2017
    </metadata>
    <g transform="translate(0.000000,421.000000) scale(0.100000,-0.100000)"
       fill="#000000" stroke="none">
        <path d="M5509 3645 c-1 -6 -1 -44 0 -85 2 -70 -58 -485 -74 -510 -4 -6 -10
-8 -15 -5 -5 3 -12 -6 -16 -20 -9 -36 -24 -31 -24 8 0 17 -4 38 -9 46 -6 9
-13 -18 -21 -75 -15 -113 -13 -51 -12 -619 l2 -490 175 -88 175 -87 0 280 c0
154 2 280 4 280 3 0 88 -43 190 -96 l186 -96 0 -281 0 -282 170 -87 170 -87 1
682 c2 961 2 956 -13 1010 -15 57 -28 61 -28 7 0 -22 -4 -40 -10 -40 -5 0 -10
-20 -10 -45 0 -25 -4 -45 -8 -45 -38 0 -73 126 -89 318 -2 34 -8 62 -13 62 -5
0 -11 -28 -13 -62 -16 -189 -51 -318 -89 -318 -4 0 -8 20 -8 45 0 25 -4 45
-10 45 -5 0 -10 18 -10 40 0 22 -4 40 -10 40 -5 0 -10 -12 -10 -27 -1 -16 -6
-38 -13 -51 -10 -18 -12 -91 -9 -314 l4 -290 -191 98 -191 98 0 181 c1 216
-19 368 -35 269 -3 -22 -8 -46 -9 -54 -2 -8 -9 -1 -16 17 -6 18 -16 31 -20 28
-10 -6 -13 6 -51 245 -18 115 -29 225 -28 268 1 45 -2 77 -9 84 -7 7 -13 8
-13 3z"/>
        <path d="M11439 3195 c-191 -32 -375 -115 -531 -240 -471 -376 -574 -1041
-239 -1550 56 -86 183 -220 271 -286 450 -339 1104 -293 1506 106 96 95 146
161 209 278 178 330 182 734 10 1077 -161 321 -478 553 -839 615 -105 18 -281
18 -387 0z m141 -385 c0 -45 -2 -50 -22 -50 -34 0 -85 -35 -104 -72 -13 -24
-19 -65 -22 -145 l-5 -113 202 0 201 0 0 91 c0 155 -26 212 -107 235 -36 10
-38 13 -41 57 -3 45 -2 47 23 47 56 0 116 -23 160 -62 59 -52 75 -105 75 -255
l0 -113 250 0 250 0 0 -160 0 -160 -45 0 -45 0 0 100 0 100 -206 0 -206 0 7
-47 c15 -100 51 -151 118 -167 23 -6 27 -11 27 -44 0 -36 -3 -39 -48 -58 -40
-17 -53 -29 -69 -65 -12 -24 -24 -65 -28 -91 l-6 -48 205 0 206 0 0 105 0 105
45 0 45 0 0 -160 0 -160 -250 0 -250 0 0 -118 c0 -155 -15 -207 -75 -260 -44
-39 -104 -62 -160 -62 -25 0 -26 2 -23 47 3 44 5 48 33 53 88 18 107 55 113
218 l4 122 -202 0 -202 0 4 -117 c3 -87 9 -128 22 -156 20 -41 59 -67 101 -67
23 0 25 -3 25 -50 0 -50 0 -50 -33 -50 -54 0 -122 28 -160 67 -53 52 -67 105
-67 250 l0 123 -250 0 -250 0 0 160 0 160 45 0 45 0 0 -105 0 -105 206 0 206
0 -6 28 c-2 15 -7 44 -11 65 -8 47 -55 102 -100 117 -32 10 -35 15 -35 49 0
35 3 38 48 57 40 17 53 29 69 65 12 24 23 65 27 92 l6 47 -205 0 -205 0 0
-100 0 -100 -45 0 -45 0 0 160 0 160 250 0 250 0 0 118 c0 80 5 133 15 164 28
82 118 146 208 147 l37 1 0 -50z"/>
        <path d="M11428 2246 c-7 -77 -39 -142 -85 -171 -18 -11 -32 -22 -32 -25 -1
-3 15 -15 35 -28 44 -29 74 -93 81 -173 l6 -59 198 0 199 0 0 33 c1 91 45 184
99 208 33 15 41 29 16 29 -8 0 -30 16 -49 35 -38 38 -66 113 -66 177 l0 38
-199 0 -198 0 -5 -64z"/>
        <path d="M20 2935 l0 -85 95 0 95 0 0 -630 0 -630 -100 0 -101 0 3 -82 3 -83
425 -7 c234 -4 519 -7 635 -5 l210 2 0 205 0 205 -87 3 -88 3 0 -121 0 -120
-350 0 -350 0 0 423 c0 232 3 513 7 625 l6 202 81 0 c45 0 86 4 92 8 17 11 28
126 15 151 -11 21 -17 21 -301 21 l-290 0 0 -85z"/>
        <path d="M9084 2952 c-14 -14 -19 -97 -8 -126 5 -12 21 -16 75 -16 l69 0 0
-645 0 -644 -72 -3 -73 -3 -6 -60 c-11 -100 -24 -95 245 -95 204 0 235 2 240
16 11 28 6 120 -6 132 -7 7 -39 12 -75 12 l-63 0 0 119 0 119 106 97 c60 56
109 94 113 89 5 -5 99 -134 210 -286 230 -316 224 -311 361 -306 l75 3 3 78 3
77 -59 0 -59 0 -201 274 c-111 151 -202 278 -201 283 0 4 59 59 131 121 l131
112 84 0 84 0 -3 78 -3 77 -230 3 c-263 3 -255 5 -255 -84 0 -58 10 -71 59
-76 l35 -3 -160 -144 c-87 -79 -173 -157 -190 -173 l-30 -28 4 500 c4 419 2
500 -9 504 -8 3 -81 6 -163 8 -117 3 -151 1 -162 -10z"/>
        <path d="M1773 2500 c-92 -24 -173 -64 -213 -105 l-31 -32 34 -48 c43 -63 60
-74 89 -56 118 75 193 95 337 89 83 -3 115 -9 146 -25 76 -40 111 -98 122
-203 l6 -60 -149 0 c-352 0 -535 -68 -610 -225 -34 -70 -34 -189 0 -260 108
-233 503 -251 717 -33 l59 60 0 -75 c0 -59 4 -80 19 -98 19 -23 24 -24 158
-24 l138 0 0 75 0 75 -72 3 -72 3 -3 332 c-3 315 -4 335 -25 386 -50 123 -136
196 -263 225 -98 23 -294 20 -387 -4z m487 -669 l0 -89 -62 -58 c-85 -78 -169
-116 -269 -122 -119 -7 -198 28 -238 105 -18 34 -13 104 9 141 49 80 157 108
433 111 l127 1 0 -89z"/>
        <path d="M2720 2425 l0 -75 59 0 c99 0 91 31 91 -335 0 -296 2 -328 20 -386
33 -106 103 -179 208 -220 80 -32 242 -32 323 -1 67 27 115 61 150 107 l26 35
7 -60 c5 -47 12 -63 29 -75 25 -16 227 -32 271 -21 26 6 27 8 24 79 l-3 72
-72 3 -73 3 -2 472 -3 472 -160 0 -160 0 0 -75 0 -75 68 -3 67 -3 0 -303 0
-303 -32 -44 c-42 -58 -63 -75 -128 -107 -45 -21 -69 -26 -130 -26 -106 0
-168 35 -213 119 -21 39 -22 53 -25 410 -3 361 -4 370 -24 392 -20 22 -29 23
-170 23 l-148 0 0 -75z"/>
        <path d="M4117 2492 c-15 -3 -17 -23 -17 -178 l0 -174 74 0 c88 0 86 -2 86
115 l0 84 283 -6 c155 -3 284 -7 285 -9 2 -1 -153 -164 -345 -361 -192 -197
-359 -371 -371 -387 -18 -24 -22 -42 -22 -101 0 -57 3 -74 16 -79 9 -3 231 -6
493 -6 l478 0 7 61 c11 105 7 274 -6 287 -16 16 -130 16 -146 0 -8 -8 -12 -45
-12 -100 l0 -88 -290 0 c-159 0 -290 3 -290 6 0 3 166 178 370 389 203 211
372 394 375 407 3 13 5 49 3 79 l-3 54 -476 5 c-262 3 -483 4 -492 2z"/>
        <path d="M6988 2480 c-128 -22 -279 -100 -286 -148 -4 -23 61 -112 82 -112 6
0 47 18 91 40 172 86 383 82 475 -10 42 -42 70 -115 70 -182 l0 -38 -107 0
c-361 0 -555 -63 -640 -208 -21 -36 -28 -61 -31 -127 -3 -51 0 -97 8 -121 45
-136 175 -214 360 -214 155 0 260 42 368 145 l62 61 0 -74 c0 -64 3 -76 25
-98 24 -24 28 -25 157 -22 l133 3 0 75 0 75 -72 3 -73 3 0 312 c0 328 -5 369
-48 452 -26 51 -95 117 -151 145 -89 44 -285 63 -423 40z m432 -686 l0 -86
-56 -54 c-165 -158 -407 -175 -501 -35 -47 70 -20 167 58 211 67 38 138 48
327 49 l172 1 0 -86z"/>
        <path d="M8243 2456 c-139 -46 -245 -139 -307 -269 -43 -90 -56 -154 -56 -265
1 -265 128 -459 353 -540 63 -23 88 -26 197 -27 136 0 179 10 295 68 66 33
185 144 185 173 0 19 -77 104 -94 104 -5 0 -35 -25 -67 -55 -208 -198 -519
-158 -630 80 -78 167 -49 364 71 484 57 57 116 88 198 103 159 30 352 -90 352
-218 0 -59 18 -74 88 -74 31 0 63 4 70 8 9 7 12 58 10 223 l-3 214 -58 3 c-76
4 -87 -6 -87 -75 l0 -55 -41 37 c-23 20 -71 51 -108 68 -59 28 -77 31 -181 34
-100 3 -124 0 -187 -21z"/>
    </g>
</svg>
